<?xml version="1.0" encoding="UTF-8" standalone="no"?>
<!-- Created with Inkscape (http://www.inkscape.org/) -->

<svg
   width="21.501009mm"
   height="24.657955mm"
   viewBox="0 0 21.501009 24.657955"
   version="1.1"
   id="svg1"
   xmlns:inkscape="http://www.inkscape.org/namespaces/inkscape"
   xmlns:sodipodi="http://sodipodi.sourceforge.net/DTD/sodipodi-0.dtd"
   xmlns="http://www.w3.org/2000/svg"
   xmlns:svg="http://www.w3.org/2000/svg">
  <sodipodi:namedview
     id="namedview1"
     pagecolor="#ffffff"
     bordercolor="#000000"
     borderopacity="0.25"
     inkscape:showpageshadow="2"
     inkscape:pageopacity="0.0"
     inkscape:pagecheckerboard="0"
     inkscape:deskcolor="#d1d1d1"
     inkscape:document-units="mm"
     inkscape:export-bgcolor="#00000000" />
  <defs
     id="defs1">
    <filter
       inkscape:label="Pixellize"
       inkscape:menu="Pixel Tools"
       inkscape:menu-tooltip="Reduce or remove antialiasing around shapes"
       style="color-interpolation-filters:sRGB"
       id="filter6"
       x="0"
       y="0"
       width="1"
       height="1">
      <feColorMatrix
         values="1 0 0 0 0 0 1 0 0 0 0 0 1 0 0 0 0 0 1000 -500 "
         id="feColorMatrix6"
         result="fbSourceGraphic" />
      <feColorMatrix
         result="fbSourceGraphicAlpha"
         in="fbSourceGraphic"
         values="0 0 0 -1 0 0 0 0 -1 0 0 0 0 -1 0 0 0 0 1 0"
         id="feColorMatrix7" />
      <feColorMatrix
         id="feColorMatrix8"
         values="1 0 0 0 0 0 1 0 0 0 0 0 1 0 0 0 0 0 1000 -500 "
         in="fbSourceGraphic" />
    </filter>
  </defs>
  <g
     inkscape:label="Layer 1"
     inkscape:groupmode="layer"
     id="layer1"
     transform="translate(-40.025468,-45.723269)">
    <g
       id="g6"
       style="filter:url(#filter6)"
       inkscape:label="g6">
      <path
         d="m 44.700631,47.725252 c -2.297782,-1.207503 -4.053198,-2.035962 -4.446241,-2.000911 -0.02325,0.0021 -0.04144,0.007 -0.05529,0.01499 -0.06241,0.03603 -0.12001,0.197168 -0.173633,0.445968 A 14.795202,14.795202 0 0 1 46.029232,58.084827 14.795202,14.795202 0 0 1 40.028564,69.9363 c 0.05271,0.239797 0.109394,0.394133 0.170533,0.429431 0.24508,0.141497 2.043872,-0.700176 4.432804,-1.952853 A 16.804428,16.804428 0 0 0 48.253385,58.052787 16.804428,16.804428 0 0 0 44.700631,47.725252 Z"
         style="fill:#00ff00;stroke-width:0.264583;filter:url(#filter6)"
         id="path6" />
      <path
         d="m 44.700631,47.725252 a 16.804428,16.804428 0 0 1 3.552754,10.327535 16.804428,16.804428 0 0 1 -3.621484,10.360091 c 6.252548,-3.278628 16.894576,-9.619411 16.894576,-10.360091 0,-0.737254 -10.561454,-7.035546 -16.825846,-10.327535 z"
         style="fill:#008000;stroke-width:0.264583;filter:url(#filter6)"
         id="path5" />
    </g>
  </g>
</svg>
